<?xml version="1.0" encoding="utf-8"?>
<svg version="1.1" xmlns="http://www.w3.org/2000/svg" xmlns:xlink="http://www.w3.org/1999/xlink" x="0px" y="0px"
	 viewBox="0 0 1080 1080" style="enable-background:new 0 0 1080 1080;" xml:space="preserve">
<style type="text/css">
	.st0{display:none;}
	.st7{display:inline;fill:#B43A95;}
	.st8{fill:url(#SVGID_1_);}
	.st9{fill:url(#SVGID_2_);}
</style>

<g id="Layer_2_copy">
	<g class="st0">
		<polyline class="st7" points="620.16,394.09 620.16,844.36 577.56,844.36 474.31,844.36 474.31,394.09 		"/>
		<path class="st7" d="M970.14,425.17c0,0-8.83,191.47-204.39,198.84h-116.7V495.98h78.52c59.49,0,80.67-51.65,80.67-77.81
			c0-26.17-18.02-77.82-80.67-77.82c-46.61,0-55.02,0-55.02,0V212.32c0,0,69.8,0,90.32,0C783.39,212.32,970.14,226.76,970.14,425.17
			z"/>
		<polygon class="st7" points="682.28,624.01 825.43,844.36 987.57,844.36 834.93,611.05 		"/>
		<rect x="620.16" y="495.98" class="st7" width="28.88" height="128.03"/>
	</g>
	<linearGradient id="SVGID_1_" gradientUnits="userSpaceOnUse" x1="474.31" y1="528.34" x2="974.8569" y2="528.34">
		<stop  offset="0.3292" style="stop-color:#B84599"/>
		<stop  offset="0.7606" style="stop-color:#7C2A90"/>
	</linearGradient>
	<path class="st8" d="M959.83,844.36H833.57c-5.08,0-9.81-2.57-12.58-6.83L686.72,630.84c-2.77-4.26-7.5-6.83-12.58-6.83h-46.98
		c-3.87,0-7,3.13-7,7v198.35c0,8.28-6.72,15-15,15H489.31c-8.28,0-15-6.72-15-15V409.09c0-8.28,6.72-15,15-15h115.85
		c8.28,0,15,6.72,15,15v79.89c0,3.87,3.13,7,7,7h100.41c59.49,0,80.67-51.65,80.67-77.81c0-26.17-18.02-77.82-80.67-77.82h-40.03
		c-8.28,0-15-6.72-15-15v-98.03c0-8.28,6.72-15,15-15h75.33c20.5,0,206.97,14.42,207.27,212.37c0,0.36-0.01,0.72-0.03,1.07
		c-0.62,9.77-10.89,138.15-126.53,183.06c-4.14,1.61-5.76,6.63-3.32,10.35l132.13,201.98C978.91,831.12,971.75,844.36,959.83,844.36
		z"/>
	<linearGradient id="SVGID_2_" gradientUnits="userSpaceOnUse" x1="77.55" y1="528.34" x2="620.16" y2="528.34">
		<stop  offset="0.3292" style="stop-color:#FAC212"/>
		<stop  offset="0.7606" style="stop-color:#B6862D"/>
	</linearGradient>
	<path class="st9" d="M620.16,227.32v98.03c0,8.28-6.72,15-15,15H428.93c-3.87,0-7,3.13-7,7v482.01c0,8.28-6.72,15-15,15H291.07
		c-8.28,0-15-6.72-15-15V347.35c0-3.87-3.13-7-7-7H92.55c-8.28,0-15-6.72-15-15v-98.03c0-8.25,6.75-15,15-15h512.61
		C613.44,212.32,620.16,219.04,620.16,227.32z"/>
</g>

</svg>
